<mxfile host="app.diagrams.net" modified="2022-11-07T14:35:17.933Z" agent="5.0 (Windows NT 10.0; Win64; x64) AppleWebKit/537.36 (KHTML, like Gecko) Chrome/107.0.0.0 Safari/537.36 Edg/107.0.1418.26" etag="Him9kCVvbzbIaIqTroV1" version="20.5.3" type="github">
  <diagram id="MK0p44pxTtZvrscMXyji" name="第 1 页">
    <mxGraphModel dx="1209" dy="1120" grid="0" gridSize="10" guides="1" tooltips="1" connect="1" arrows="1" fold="1" page="0" pageScale="1" pageWidth="827" pageHeight="1169" math="0" shadow="0">
      <root>
        <mxCell id="0" />
        <mxCell id="1" parent="0" />
        <mxCell id="-jsMaPVAlyABWGL5W-zT-16" style="edgeStyle=orthogonalEdgeStyle;rounded=0;orthogonalLoop=1;jettySize=auto;html=1;exitX=0.5;exitY=1;exitDx=0;exitDy=0;entryX=0.5;entryY=0;entryDx=0;entryDy=0;fontSize=12;curved=1;" edge="1" parent="1" source="-jsMaPVAlyABWGL5W-zT-5" target="-jsMaPVAlyABWGL5W-zT-10">
          <mxGeometry relative="1" as="geometry" />
        </mxCell>
        <mxCell id="-jsMaPVAlyABWGL5W-zT-5" value="list:返回的结果数组&lt;br&gt;map:记录字符和最后出现的位置&lt;br&gt;start:起始位置&lt;br&gt;end:结束位置" style="whiteSpace=wrap;html=1;" vertex="1" parent="1">
          <mxGeometry x="298" y="-34" width="295" height="82" as="geometry" />
        </mxCell>
        <mxCell id="-jsMaPVAlyABWGL5W-zT-17" style="edgeStyle=orthogonalEdgeStyle;rounded=0;orthogonalLoop=1;jettySize=auto;html=1;exitX=0.5;exitY=1;exitDx=0;exitDy=0;entryX=0.5;entryY=0;entryDx=0;entryDy=0;fontSize=12;curved=1;" edge="1" parent="1" source="-jsMaPVAlyABWGL5W-zT-10" target="-jsMaPVAlyABWGL5W-zT-11">
          <mxGeometry relative="1" as="geometry" />
        </mxCell>
        <mxCell id="-jsMaPVAlyABWGL5W-zT-23" style="edgeStyle=orthogonalEdgeStyle;curved=1;rounded=0;orthogonalLoop=1;jettySize=auto;html=1;exitX=0;exitY=0.5;exitDx=0;exitDy=0;entryX=0.474;entryY=0.012;entryDx=0;entryDy=0;fontSize=12;entryPerimeter=0;" edge="1" parent="1" source="-jsMaPVAlyABWGL5W-zT-10" target="-jsMaPVAlyABWGL5W-zT-12">
          <mxGeometry relative="1" as="geometry">
            <Array as="points">
              <mxPoint x="200" y="127" />
              <mxPoint x="200" y="304" />
              <mxPoint x="438" y="304" />
            </Array>
          </mxGeometry>
        </mxCell>
        <mxCell id="-jsMaPVAlyABWGL5W-zT-10" value="i&amp;lt;size" style="rhombus;whiteSpace=wrap;html=1;" vertex="1" parent="1">
          <mxGeometry x="340" y="87" width="209" height="80" as="geometry" />
        </mxCell>
        <mxCell id="-jsMaPVAlyABWGL5W-zT-22" style="edgeStyle=orthogonalEdgeStyle;curved=1;rounded=0;orthogonalLoop=1;jettySize=auto;html=1;exitX=1;exitY=0.5;exitDx=0;exitDy=0;entryX=1;entryY=0.5;entryDx=0;entryDy=0;fontSize=12;" edge="1" parent="1" source="-jsMaPVAlyABWGL5W-zT-11" target="-jsMaPVAlyABWGL5W-zT-10">
          <mxGeometry relative="1" as="geometry" />
        </mxCell>
        <mxCell id="-jsMaPVAlyABWGL5W-zT-11" value="&lt;font style=&quot;font-size: 12px;&quot;&gt;每个字符最后出现的位置放到map中&lt;/font&gt;" style="whiteSpace=wrap;html=1;" vertex="1" parent="1">
          <mxGeometry x="320" y="226" width="249" height="45" as="geometry" />
        </mxCell>
        <mxCell id="-jsMaPVAlyABWGL5W-zT-19" style="edgeStyle=orthogonalEdgeStyle;rounded=0;orthogonalLoop=1;jettySize=auto;html=1;exitX=0.5;exitY=1;exitDx=0;exitDy=0;entryX=0.5;entryY=0;entryDx=0;entryDy=0;fontSize=12;curved=1;" edge="1" parent="1" source="-jsMaPVAlyABWGL5W-zT-12" target="-jsMaPVAlyABWGL5W-zT-13">
          <mxGeometry relative="1" as="geometry" />
        </mxCell>
        <mxCell id="-jsMaPVAlyABWGL5W-zT-26" style="edgeStyle=orthogonalEdgeStyle;curved=1;rounded=0;orthogonalLoop=1;jettySize=auto;html=1;exitX=0;exitY=0.5;exitDx=0;exitDy=0;fontSize=12;entryX=0;entryY=0.5;entryDx=0;entryDy=0;" edge="1" parent="1" source="-jsMaPVAlyABWGL5W-zT-12" target="-jsMaPVAlyABWGL5W-zT-27">
          <mxGeometry relative="1" as="geometry">
            <mxPoint x="302.5" y="792" as="targetPoint" />
            <Array as="points">
              <mxPoint x="263" y="380" />
              <mxPoint x="263" y="836" />
            </Array>
          </mxGeometry>
        </mxCell>
        <mxCell id="-jsMaPVAlyABWGL5W-zT-12" value="i&amp;lt;size" style="rhombus;whiteSpace=wrap;html=1;fontSize=12;" vertex="1" parent="1">
          <mxGeometry x="324" y="340" width="241" height="80" as="geometry" />
        </mxCell>
        <mxCell id="-jsMaPVAlyABWGL5W-zT-20" style="edgeStyle=orthogonalEdgeStyle;rounded=0;orthogonalLoop=1;jettySize=auto;html=1;exitX=0.5;exitY=1;exitDx=0;exitDy=0;entryX=0.5;entryY=0;entryDx=0;entryDy=0;fontSize=12;curved=1;" edge="1" parent="1" source="-jsMaPVAlyABWGL5W-zT-13" target="-jsMaPVAlyABWGL5W-zT-14">
          <mxGeometry relative="1" as="geometry" />
        </mxCell>
        <mxCell id="-jsMaPVAlyABWGL5W-zT-13" value="更新遇到过的字符中最远的下标" style="whiteSpace=wrap;html=1;fontSize=12;" vertex="1" parent="1">
          <mxGeometry x="341" y="469" width="207" height="41" as="geometry" />
        </mxCell>
        <mxCell id="-jsMaPVAlyABWGL5W-zT-21" style="edgeStyle=orthogonalEdgeStyle;curved=1;rounded=0;orthogonalLoop=1;jettySize=auto;html=1;exitX=0.5;exitY=1;exitDx=0;exitDy=0;entryX=0.5;entryY=0;entryDx=0;entryDy=0;fontSize=12;" edge="1" parent="1" source="-jsMaPVAlyABWGL5W-zT-14" target="-jsMaPVAlyABWGL5W-zT-15">
          <mxGeometry relative="1" as="geometry" />
        </mxCell>
        <mxCell id="-jsMaPVAlyABWGL5W-zT-24" style="edgeStyle=orthogonalEdgeStyle;curved=1;rounded=0;orthogonalLoop=1;jettySize=auto;html=1;exitX=1;exitY=0.5;exitDx=0;exitDy=0;entryX=1;entryY=0.5;entryDx=0;entryDy=0;fontSize=12;" edge="1" parent="1" source="-jsMaPVAlyABWGL5W-zT-14" target="-jsMaPVAlyABWGL5W-zT-12">
          <mxGeometry relative="1" as="geometry" />
        </mxCell>
        <mxCell id="-jsMaPVAlyABWGL5W-zT-14" value="当前位置就是遇到的字符中最远的那个" style="rhombus;whiteSpace=wrap;html=1;fontSize=12;" vertex="1" parent="1">
          <mxGeometry x="306.75" y="559" width="275.5" height="80" as="geometry" />
        </mxCell>
        <mxCell id="-jsMaPVAlyABWGL5W-zT-28" style="edgeStyle=orthogonalEdgeStyle;curved=1;rounded=0;orthogonalLoop=1;jettySize=auto;html=1;exitX=1;exitY=0.5;exitDx=0;exitDy=0;entryX=1;entryY=0.5;entryDx=0;entryDy=0;fontSize=12;" edge="1" parent="1" source="-jsMaPVAlyABWGL5W-zT-15" target="-jsMaPVAlyABWGL5W-zT-12">
          <mxGeometry relative="1" as="geometry">
            <Array as="points">
              <mxPoint x="671" y="719" />
              <mxPoint x="671" y="380" />
            </Array>
          </mxGeometry>
        </mxCell>
        <mxCell id="-jsMaPVAlyABWGL5W-zT-15" value="将字串的长度放到数组中&lt;br&gt;更新start位置" style="whiteSpace=wrap;html=1;fontSize=12;" vertex="1" parent="1">
          <mxGeometry x="334.5" y="692" width="220" height="53" as="geometry" />
        </mxCell>
        <mxCell id="-jsMaPVAlyABWGL5W-zT-36" style="edgeStyle=orthogonalEdgeStyle;curved=1;rounded=0;orthogonalLoop=1;jettySize=auto;html=1;exitX=0.5;exitY=1;exitDx=0;exitDy=0;entryX=0.5;entryY=0;entryDx=0;entryDy=0;fontSize=12;" edge="1" parent="1" source="-jsMaPVAlyABWGL5W-zT-27" target="-jsMaPVAlyABWGL5W-zT-35">
          <mxGeometry relative="1" as="geometry" />
        </mxCell>
        <mxCell id="-jsMaPVAlyABWGL5W-zT-27" value="返回数组" style="whiteSpace=wrap;html=1;fontSize=12;" vertex="1" parent="1">
          <mxGeometry x="380" y="806" width="120" height="60" as="geometry" />
        </mxCell>
        <mxCell id="-jsMaPVAlyABWGL5W-zT-29" value="是" style="text;html=1;align=center;verticalAlign=middle;resizable=0;points=[];autosize=1;strokeColor=none;fillColor=none;fontSize=12;" vertex="1" parent="1">
          <mxGeometry x="448" y="176" width="30" height="26" as="geometry" />
        </mxCell>
        <mxCell id="-jsMaPVAlyABWGL5W-zT-30" value="否" style="text;html=1;align=center;verticalAlign=middle;resizable=0;points=[];autosize=1;strokeColor=none;fillColor=none;fontSize=12;" vertex="1" parent="1">
          <mxGeometry x="308" y="93" width="30" height="26" as="geometry" />
        </mxCell>
        <mxCell id="-jsMaPVAlyABWGL5W-zT-31" value="是" style="text;html=1;align=center;verticalAlign=middle;resizable=0;points=[];autosize=1;strokeColor=none;fillColor=none;fontSize=12;" vertex="1" parent="1">
          <mxGeometry x="442" y="432" width="30" height="26" as="geometry" />
        </mxCell>
        <mxCell id="-jsMaPVAlyABWGL5W-zT-32" value="否" style="text;html=1;align=center;verticalAlign=middle;resizable=0;points=[];autosize=1;strokeColor=none;fillColor=none;fontSize=12;" vertex="1" parent="1">
          <mxGeometry x="290" y="355" width="30" height="26" as="geometry" />
        </mxCell>
        <mxCell id="-jsMaPVAlyABWGL5W-zT-33" value="是" style="text;html=1;align=center;verticalAlign=middle;resizable=0;points=[];autosize=1;strokeColor=none;fillColor=none;fontSize=12;" vertex="1" parent="1">
          <mxGeometry x="446" y="640" width="30" height="26" as="geometry" />
        </mxCell>
        <mxCell id="-jsMaPVAlyABWGL5W-zT-34" value="否" style="text;html=1;align=center;verticalAlign=middle;resizable=0;points=[];autosize=1;strokeColor=none;fillColor=none;fontSize=12;" vertex="1" parent="1">
          <mxGeometry x="549" y="560" width="30" height="26" as="geometry" />
        </mxCell>
        <mxCell id="-jsMaPVAlyABWGL5W-zT-35" value="结束" style="whiteSpace=wrap;html=1;fontSize=12;" vertex="1" parent="1">
          <mxGeometry x="382.25" y="903" width="115.5" height="54" as="geometry" />
        </mxCell>
      </root>
    </mxGraphModel>
  </diagram>
</mxfile>
